# xmcd
#
# Track frame offsets: 
#        150
#        13982
#        25593
#        40115
#        54802
#        68486
#        85798
#        97772
#        114723
#        132765
#        146590
#        165780
#        176806
#        192185
#        205692
#        221976
#        239064
#        255972
#        271767
#        285827
#        298382
#        312873
#
# Disc length: 4401 seconds
#
# Revision: 3
# Processed by: cddbd v1.4PL0 Copyright (c) Steve Scherf et al.
# Submitted via: ExactAudioCopy v0.90b4
#
DISCID=2d112f16
DTITLE=VariousCountry Artists - Coantemporary Country- The Mid '80's
DYEAR=1991
DGENRE=Country
TTITLE0=Dwight Yoakam - Guitars, Cadiliacs
TTITLE1=Steve Earle - Guitar Town
TTITLE2=The Judds - Mama He's Crazy
TTITLE3=George Strait - Does Fort Worth Ever Cross Your Mind
TTITLE4=Kris Kristofferson, Willie Nelson, Waylon Jennings, Johnny Cas
TTITLE4=h - Highwayman
TTITLE5=Anne Murray and Kenny Loggins - Nobody Loves Me Like You Do
TTITLE6=Vern Gosdin - I Can Tell By The Way You Dance (You're Gonna Lo
TTITLE6=ve Me Tonight)
TTITLE7=Kenny Rogers - Morning Desire
TTITLE8=The Statler Brothers - Too Much On My Heart
TTITLE9=Merle Haggard - That's The Way Love Goes
TTITLE10=Ronnie Milsap - Lost In The Fifties Tonight (In The Still Of 
TTITLE10=The Night)
TTITLE11=Hank Williams Jr. - Mind You Own Business
TTITLE12=Rosanne Cash - Never Be You
TTITLE13=Mel Mcdaniel - Baby's Got Her Blue Jeans On
TTITLE14=Dan Seals - Bop
TTITLE15=Kenny Rogers and  Dolly Parton - Real Love
TTITLE16=Alabama - Roll On (Eighteen Wheeler)
TTITLE17=The Nitty Gritty Dirt Band - Modern Day Romance
TTITLE18=Randy Travis - On The Other Hand
TTITLE19=The Forester Sisters - Mam's Neve Seen Those Eyes
TTITLE20=Lee Greenwood - Dixie Road
TTITLE21=Ricky Skaggs - Country Boy
EXTD=added artists names
EXTT0=
EXTT1=
EXTT2=
EXTT3=
EXTT4=
EXTT5=
EXTT6=
EXTT7=
EXTT8=
EXTT9=
EXTT10=
EXTT11=
EXTT12=
EXTT13=
EXTT14=
EXTT15=
EXTT16=
EXTT17=
EXTT18=
EXTT19=
EXTT20=
EXTT21=
PLAYORDER=
